# xmcd
#
# Track frame offsets: 
#        150
#        13989
#        33074
#        50609
#        61854
#        83632
#        98171
#        116492
#        142568
#        157699
#        176294
#
# Disc length: 2399 seconds
#
# Revision: 0
# Processed by: cddbd v1.5.2PL0 Copyright (c) Steve Scherf et al.
# Submitted via: ExactAudioCopy v0.99pb4
#
DISCID=73095d0b
DTITLE=Tengs-Lengs - Tengs-Lengs
DYEAR=2006
DGENRE=Blues
TTITLE0=Ha Tengs-Lengs
TTITLE1=Néni Blues
TTITLE2=Oly fáradt vagyok
TTITLE3=Ne kopogj rám
TTITLE4=Porfelhõ
TTITLE5=Szívószál
TTITLE6=Gyuri Blues
TTITLE7=100 Sötét éjjel
TTITLE8=Éhes vagyok
TTITLE9=Nõvérke
TTITLE10=Hull a pelyhes
EXTD=
EXTT0=
EXTT1=
EXTT2=
EXTT3=
EXTT4=
EXTT5=
EXTT6=
EXTT7=
EXTT8=
EXTT9=
EXTT10=
PLAYORDER=
